<svg viewBox="16 0 45 44" fill="none" xmlns="http://www.w3.org/2000/svg">
    <path d="M49.9855 20.9988C46.1595 18.3989 41.2638 19.4593 38.694 23.368C36.5457 26.6334 33.3056 27.0371 32.0496 27.0371C27.9617 27.0371 25.161 24.1622 24.331 21.1852C24.3222 21.1541 24.3177 21.1319 24.3088 21.1009C24.3 21.0698 24.2911 21.0343 24.2822 20.9988C23.9582 19.7565 23.8739 19.162 23.8739 17.8443C23.8739 10.7279 31.1752 2.80398 41.6988 2.80398C52.2225 2.80398 58.6361 11.003 60.2251 15.5594C60.1984 15.4796 60.1718 15.3997 60.1452 15.3154C57.0915 6.40657 48.6362 0 38.6851 0C26.1597 0 16 10.1511 16 22.6759C16 33.8696 24.078 43.4529 35.2808 43.4529C44.2154 43.4529 50.2207 38.4438 52.977 31.5448C54.4861 27.7692 53.4164 23.3325 49.9855 21.0032V20.9988Z" fill="#003863"/>
    <path d="M60.3677 16.0072C59.045 11.5616 52.8311 2.8125 41.7039 2.8125C31.1802 2.8125 23.8789 10.7364 23.8789 17.8528C23.8789 19.1705 23.9588 19.7651 24.2872 21.0073C24.1497 20.4661 24.0786 19.9203 24.0786 19.3879C24.0786 11.9742 31.5042 6.84101 39.134 6.84101C49.4668 6.84101 57.8377 15.213 57.8377 25.5372C57.8377 33.6341 53.1773 40.6352 46.4086 44.0026C55.1391 40.8482 61.3708 32.4939 61.3708 22.68C61.3708 20.3596 61.0601 18.3098 60.3721 16.0072H60.3677Z" fill="#E4032E"/>
                                                                                            </svg>


