<svg width="252" height="44" viewBox="0 0 252 44" fill="none" xmlns="http://www.w3.org/2000/svg">
    <path d="M49.9855 20.9988C46.1595 18.3989 41.2638 19.4593 38.694 23.368C36.5457 26.6334 33.3056 27.0371 32.0496 27.0371C27.9617 27.0371 25.161 24.1622 24.331 21.1852C24.3222 21.1541 24.3177 21.1319 24.3088 21.1009C24.3 21.0698 24.2911 21.0343 24.2822 20.9988C23.9582 19.7565 23.8739 19.162 23.8739 17.8443C23.8739 10.7279 31.1752 2.80398 41.6988 2.80398C52.2225 2.80398 58.6361 11.003 60.2251 15.5594C60.1984 15.4796 60.1718 15.3997 60.1452 15.3154C57.0915 6.40657 48.6362 0 38.6851 0C26.1597 0 16 10.1511 16 22.6759C16 33.8696 24.078 43.4529 35.2808 43.4529C44.2154 43.4529 50.2207 38.4438 52.977 31.5448C54.4861 27.7692 53.4164 23.3325 49.9855 21.0032V20.9988Z" fill="#003863"/>
    <path d="M60.3677 16.0072C59.045 11.5616 52.8311 2.8125 41.7039 2.8125C31.1802 2.8125 23.8789 10.7364 23.8789 17.8528C23.8789 19.1705 23.9588 19.7651 24.2872 21.0073C24.1497 20.4661 24.0786 19.9203 24.0786 19.3879C24.0786 11.9742 31.5042 6.84101 39.134 6.84101C49.4668 6.84101 57.8377 15.213 57.8377 25.5372C57.8377 33.6341 53.1773 40.6352 46.4086 44.0026C55.1391 40.8482 61.3708 32.4939 61.3708 22.68C61.3708 20.3596 61.0601 18.3098 60.3721 16.0072H60.3677Z" fill="#E4032E"/>
    <path d="M81.8606 17.0781V26.1201H80.3959V18.8395L78.0169 26.1201H76.6054L74.2264 18.8395V26.1201H72.7617V17.0781H75.0076L77.3067 24.1236L79.6059 17.0781H81.8517H81.8606Z" fill="#575656"/>
    <path d="M85.3304 17.5979C85.3304 17.8419 85.2372 18.0549 85.0508 18.2412C84.8644 18.4275 84.638 18.5207 84.3761 18.5207C84.1143 18.5207 83.8923 18.4275 83.7015 18.2412C83.5151 18.0549 83.4219 17.8419 83.4219 17.5979C83.4219 17.3406 83.5151 17.1143 83.7015 16.9279C83.8879 16.7416 84.1143 16.6484 84.3761 16.6484C84.638 16.6484 84.8599 16.7416 85.0508 16.9279C85.2372 17.1143 85.3304 17.3361 85.3304 17.5979ZM83.6438 26.1207V19.621H85.1351V26.1207H83.6438Z" fill="#575656"/>
    <path d="M88.4077 22.8539V26.1238H86.9297V19.624H88.3544V20.4936C88.5275 20.1919 88.7805 19.9435 89.1134 19.7527C89.4463 19.5619 89.8014 19.4688 90.1831 19.4688C90.9598 19.4688 91.5768 19.7305 92.0473 20.254C92.5133 20.7776 92.7485 21.4741 92.7485 22.3482V26.1238H91.2572V22.7253C91.2572 22.0332 91.1418 21.5229 90.9154 21.1857C90.6891 20.853 90.3384 20.6844 89.8724 20.6844C89.6283 20.6844 89.3886 20.7643 89.1578 20.924C88.927 21.0837 88.7495 21.3011 88.6296 21.5806C88.4832 21.9001 88.4077 22.326 88.4077 22.8539Z" fill="#575656"/>
    <path d="M96.1664 17.5979C96.1664 17.8419 96.0732 18.0549 95.8867 18.2412C95.7003 18.4275 95.474 18.5207 95.2121 18.5207C94.9502 18.5207 94.7283 18.4275 94.5374 18.2412C94.351 18.0549 94.2578 17.8419 94.2578 17.5979C94.2578 17.3406 94.351 17.1143 94.5374 16.9279C94.7239 16.7416 94.9502 16.6484 95.2121 16.6484C95.474 16.6484 95.6959 16.7416 95.8867 16.9279C96.0732 17.1143 96.1664 17.3361 96.1664 17.5979ZM94.4797 26.1207V19.621H95.9711V26.1207H94.4797Z" fill="#575656"/>
    <path d="M97.1523 24.9204L98.08 23.9754C98.3419 24.3303 98.6304 24.6054 98.9411 24.805C99.2473 24.9869 99.5713 25.0757 99.922 25.0757C100.273 25.0757 100.534 25.0091 100.765 24.876C100.996 24.7429 101.111 24.561 101.111 24.3392C101.111 24.1173 101.001 23.9399 100.779 23.8156C100.557 23.6914 100.295 23.5716 99.9885 23.4607C99.629 23.3498 99.2651 23.2211 98.8922 23.0836C98.3862 22.9017 98.0178 22.6665 97.7826 22.3826C97.5474 22.0986 97.432 21.7748 97.432 21.411C97.432 20.8741 97.685 20.4171 98.1909 20.04C98.6969 19.6629 99.2917 19.4766 99.9797 19.4766C100.712 19.4766 101.307 19.6496 101.768 19.9957C102.004 20.1776 102.19 20.4038 102.332 20.67L101.418 21.5529C101.293 21.3444 101.151 21.1758 100.987 21.0471C100.699 20.7943 100.339 20.67 99.9042 20.67C99.6512 20.67 99.4337 20.7321 99.2429 20.8564C99.052 20.9806 98.9632 21.1314 98.9632 21.3045C98.9632 21.4953 99.0698 21.655 99.2784 21.7836C99.487 21.9123 99.7977 22.041 100.206 22.1608C100.352 22.2051 100.526 22.2539 100.716 22.316C101.351 22.5246 101.835 22.7908 102.159 23.1191C102.487 23.4474 102.647 23.8423 102.647 24.2992C102.647 24.8361 102.385 25.3019 101.862 25.6924C101.338 26.0872 100.672 26.2824 99.8643 26.2824C99.1852 26.2824 98.5815 26.1271 98.0622 25.8166C97.7116 25.6081 97.4142 25.3108 97.1612 24.9204H97.1523Z" fill="#575656"/>
    <path d="M105.697 17.5391V19.6287H107.122V20.8222H105.697V24.132C105.697 24.4425 105.772 24.6555 105.928 24.7753C106.079 24.8906 106.296 24.9483 106.576 24.9483H107.126V26.1285H106.225C105.519 26.1285 105.004 25.9732 104.685 25.6626C104.361 25.3521 104.201 24.8906 104.201 24.2739V20.8222H103.078V19.6287H104.201V17.5391H105.706H105.697Z" fill="#575656"/>
    <path d="M108.332 26.1297V19.6299H109.73V20.6015C109.948 20.2821 110.214 20.0337 110.529 19.8606C110.902 19.6344 111.341 19.5234 111.847 19.5234H111.954V20.8456H111.798C111.182 20.8456 110.689 21.0319 110.32 21.4046C109.979 21.7684 109.81 22.3363 109.81 23.1038V26.1252H108.332V26.1297Z" fill="#575656"/>
    <path d="M115.043 25.8685L112.469 19.6172H114.009L115.784 24.0539L117.546 19.6172H119.073L115.429 28.6458H113.911L115.034 25.8685H115.043Z" fill="#575656"/>
    <path d="M126.306 26.2791C125.347 26.2791 124.53 25.9507 123.856 25.2985C123.181 24.6464 122.844 23.8389 122.844 22.8806C122.844 21.9222 123.181 21.1103 123.856 20.4537C124.53 19.7971 125.347 19.4688 126.306 19.4688C127.264 19.4688 128.09 19.7971 128.765 20.4537C129.435 21.1103 129.772 21.9178 129.772 22.8806C129.772 23.8433 129.435 24.6464 128.765 25.2985C128.094 25.9507 127.273 26.2791 126.306 26.2791ZM126.306 25.059C126.847 25.059 127.309 24.8549 127.699 24.4423C128.086 24.0297 128.281 23.5106 128.281 22.8806C128.281 22.2505 128.086 21.7359 127.699 21.3188C127.313 20.8974 126.847 20.6888 126.306 20.6888C125.764 20.6888 125.316 20.8974 124.925 21.3188C124.539 21.7403 124.344 22.2594 124.344 22.8806C124.344 23.5017 124.539 24.0341 124.925 24.4423C125.312 24.8549 125.773 25.059 126.306 25.059Z" fill="#575656"/>
    <path d="M131.354 18.3233C131.354 17.711 131.527 17.2452 131.869 16.9346C132.211 16.624 132.739 16.4688 133.444 16.4688H134.164V17.6489H133.733C133.453 17.6489 133.24 17.7066 133.085 17.8264C132.934 17.9417 132.854 18.1591 132.854 18.4697V19.6232H134.159V20.8167H132.854V26.123H131.35V20.8167H130.227V19.6232H131.35V18.3277L131.354 18.3233Z" fill="#575656"/>
    <path d="M138.79 24.2946L139.797 23.283C140.068 23.8553 140.405 24.2724 140.818 24.543C141.262 24.8359 141.71 24.9823 142.163 24.9823C142.642 24.9823 143.051 24.858 143.392 24.6051C143.734 24.3611 143.903 24.0417 143.903 23.6468C143.903 23.2919 143.73 23.0035 143.388 22.7817C143.042 22.5598 142.673 22.3735 142.269 22.2182C141.87 22.0718 141.448 21.9121 141.013 21.739C140.316 21.4862 139.819 21.1578 139.518 20.7541C139.216 20.3459 139.065 19.92 139.065 19.4719C139.065 18.7709 139.367 18.172 139.966 17.675C140.565 17.1781 141.302 16.9297 142.176 16.9297C143.09 16.9297 143.836 17.1648 144.409 17.6307C144.706 17.857 144.91 18.1054 145.021 18.3849L144.107 19.3432C144.027 19.188 143.885 19.0105 143.676 18.8108C143.233 18.4115 142.704 18.2163 142.096 18.2163C141.715 18.2163 141.377 18.3228 141.084 18.5358C140.791 18.7487 140.645 19.0327 140.645 19.3876C140.645 19.9244 141.235 20.3992 142.42 20.8162C142.638 20.8872 142.864 20.9626 143.099 21.0514C143.894 21.3531 144.484 21.7124 144.884 22.1206C145.279 22.5332 145.478 23.039 145.478 23.6468C145.478 24.3656 145.168 24.9823 144.551 25.5014C143.943 26.0293 143.153 26.2911 142.185 26.2911C141.297 26.2911 140.561 26.0914 139.975 25.6966C139.407 25.3061 139.012 24.8447 138.785 24.3079L138.79 24.2946Z" fill="#575656"/>
    <path d="M146.352 22.8806C146.352 21.9444 146.707 21.1458 147.417 20.4759C148.127 19.8059 149.028 19.4688 150.115 19.4688C150.968 19.4688 151.771 19.7394 152.521 20.2851L152.037 21.4386C151.385 20.9373 150.746 20.6844 150.115 20.6844C149.445 20.6844 148.899 20.8974 148.482 21.3188C148.065 21.7448 147.856 22.2594 147.856 22.8761C147.856 23.4928 148.065 24.0075 148.482 24.4245C148.899 24.846 149.445 25.0545 150.115 25.0545C150.75 25.0545 151.398 24.8061 152.064 24.3136L152.548 25.4671C151.824 26.004 151.016 26.2702 150.115 26.2702C149.028 26.2702 148.127 25.9374 147.417 25.2719C146.707 24.6064 146.352 23.8078 146.352 22.8717V22.8806Z" fill="#575656"/>
    <path d="M155.577 17.5979C155.577 17.8419 155.483 18.0549 155.297 18.2412C155.11 18.4275 154.884 18.5207 154.622 18.5207C154.36 18.5207 154.138 18.4275 153.948 18.2412C153.761 18.0549 153.668 17.8419 153.668 17.5979C153.668 17.3406 153.761 17.1143 153.948 16.9279C154.134 16.7416 154.36 16.6484 154.622 16.6484C154.884 16.6484 155.106 16.7416 155.297 16.9279C155.483 17.1143 155.577 17.3361 155.577 17.5979ZM153.89 26.1207V19.621H155.381V26.1207H153.89Z" fill="#575656"/>
    <path d="M158.264 23.5283C158.353 23.9276 158.54 24.2515 158.828 24.4999C159.245 24.8815 159.8 25.0723 160.488 25.0723C161.212 25.0723 161.886 24.8105 162.512 24.2825L162.956 25.374C162.25 25.9818 161.416 26.2835 160.448 26.2835C159.343 26.2835 158.442 25.9729 157.75 25.3474C157.057 24.7262 156.711 23.9054 156.711 22.8939C156.711 21.8823 157.017 21.0793 157.634 20.4359C158.247 19.7926 159.05 19.4688 160.044 19.4688C161.038 19.4688 161.82 19.7882 162.441 20.4271C163.062 21.066 163.378 21.8601 163.378 22.8007C163.378 23.058 163.355 23.302 163.311 23.5283H158.269H158.264ZM158.238 22.3615H161.873C161.855 21.9355 161.678 21.5496 161.336 21.1991C160.994 20.8486 160.564 20.6755 160.044 20.6755C159.525 20.6755 159.059 20.8663 158.713 21.2479C158.46 21.5318 158.304 21.9045 158.242 22.3615H158.238Z" fill="#575656"/>
    <path d="M166.087 22.8539V26.1238H164.609V19.624H166.034V20.4936C166.207 20.1919 166.46 19.9435 166.793 19.7527C167.126 19.5619 167.481 19.4688 167.863 19.4688C168.64 19.4688 169.256 19.7305 169.727 20.254C170.193 20.7776 170.428 21.4741 170.428 22.3482V26.1238H168.937V22.7253C168.937 22.0332 168.821 21.5229 168.595 21.1857C168.369 20.853 168.018 20.6844 167.552 20.6844C167.308 20.6844 167.073 20.7643 166.842 20.924C166.611 21.0837 166.434 21.3011 166.314 21.5806C166.167 21.9001 166.092 22.326 166.092 22.8539H166.087Z" fill="#575656"/>
    <path d="M171.66 22.8806C171.66 21.9444 172.015 21.1458 172.725 20.4759C173.436 19.8059 174.337 19.4688 175.424 19.4688C176.276 19.4688 177.08 19.7394 177.83 20.2851L177.346 21.4386C176.693 20.9373 176.054 20.6844 175.424 20.6844C174.754 20.6844 174.208 20.8974 173.791 21.3188C173.373 21.7448 173.165 22.2594 173.165 22.8761C173.165 23.4928 173.373 24.0075 173.791 24.4245C174.208 24.846 174.754 25.0545 175.424 25.0545C176.059 25.0545 176.707 24.8061 177.372 24.3136L177.856 25.4671C177.133 26.004 176.325 26.2702 175.424 26.2702C174.337 26.2702 173.436 25.9374 172.725 25.2719C172.015 24.6064 171.66 23.8078 171.66 22.8717V22.8806Z" fill="#575656"/>
    <path d="M180.257 23.5283C180.345 23.9276 180.532 24.2515 180.82 24.4999C181.238 24.8815 181.792 25.0723 182.48 25.0723C183.204 25.0723 183.878 24.8105 184.504 24.2825L184.948 25.374C184.242 25.9818 183.408 26.2835 182.44 26.2835C181.335 26.2835 180.434 25.9729 179.742 25.3474C179.049 24.7262 178.703 23.9054 178.703 22.8939C178.703 21.8823 179.009 21.0793 179.626 20.4359C180.239 19.7926 181.042 19.4688 182.036 19.4688C183.031 19.4688 183.812 19.7882 184.433 20.4271C185.055 21.066 185.37 21.8601 185.37 22.8007C185.37 23.058 185.348 23.302 185.303 23.5283H180.261H180.257ZM180.23 22.3615H183.865C183.847 21.9355 183.67 21.5496 183.328 21.1991C182.986 20.8486 182.556 20.6755 182.036 20.6755C181.517 20.6755 181.051 20.8663 180.705 21.2479C180.452 21.5318 180.297 21.9045 180.234 22.3615H180.23Z" fill="#575656"/>
    <path d="M193.072 21.9311H194.613C194.613 21.5052 194.448 21.1902 194.116 20.9772C193.783 20.7643 193.303 20.6578 192.677 20.6578H192.638C192.047 20.6578 191.417 20.7953 190.756 21.0748L190.378 19.9213C191.066 19.6285 191.825 19.4776 192.651 19.4688H192.677C193.774 19.4688 194.617 19.6773 195.207 20.0988C195.798 20.5202 196.091 21.1857 196.091 22.1041V26.1282H194.679V25.4139C194.4 25.689 194.058 25.9064 193.654 26.0572C193.25 26.2081 192.837 26.2835 192.42 26.2835C191.634 26.2835 191.004 26.0794 190.52 25.6668C190.037 25.2542 189.797 24.7528 189.797 24.1539C189.797 23.4884 190.099 22.9382 190.698 22.5079C191.257 22.1263 192.047 21.9355 193.077 21.9355L193.072 21.9311ZM192.669 25.1078C193.05 25.1078 193.432 25.0146 193.805 24.8283C194.178 24.6419 194.448 24.429 194.617 24.1849V23.0802H193.299C192.549 23.0802 192.025 23.1734 191.732 23.3642C191.444 23.5816 191.302 23.8389 191.302 24.1406C191.302 24.4156 191.421 24.6464 191.665 24.8283C191.91 25.0102 192.247 25.0989 192.673 25.0989L192.669 25.1078Z" fill="#575656"/>
    <path d="M199.259 22.8539V26.1238H197.781V19.624H199.206V20.4936C199.379 20.1919 199.632 19.9435 199.965 19.7527C200.298 19.5619 200.653 19.4688 201.035 19.4688C201.811 19.4688 202.428 19.7305 202.894 20.254C203.36 20.7776 203.596 21.4741 203.596 22.3482V26.1238H202.104V22.7253C202.104 22.0332 201.989 21.5229 201.763 21.1857C201.536 20.853 201.186 20.6844 200.72 20.6844C200.475 20.6844 200.24 20.7643 200.009 20.924C199.779 21.0837 199.601 21.3011 199.481 21.5806C199.335 21.9001 199.259 22.326 199.259 22.8539Z" fill="#575656"/>
    <path d="M208.053 19.4658C208.83 19.4658 209.496 19.7764 210.051 20.402V16.4844H211.542V26.1253H210.104V25.3089C209.554 25.9567 208.87 26.2806 208.053 26.2806C207.095 26.2806 206.318 25.9434 205.728 25.269C205.137 24.5946 204.84 23.8005 204.84 22.8821C204.84 21.9637 205.137 21.1695 205.728 20.4863C206.318 19.8074 207.095 19.4703 208.053 19.4703V19.4658ZM210.042 23.2947C210.068 23.0107 210.068 22.7312 210.042 22.465C209.988 21.9725 209.807 21.5599 209.491 21.2316C209.141 20.8678 208.71 20.6859 208.195 20.6859C207.623 20.6859 207.166 20.8944 206.837 21.3159C206.504 21.7374 206.34 22.2565 206.34 22.8776C206.34 23.4988 206.504 24.0312 206.837 24.4393C207.17 24.852 207.623 25.056 208.195 25.056C208.71 25.056 209.141 24.8741 209.491 24.5103C209.807 24.182 209.988 23.7738 210.042 23.2902V23.2947Z" fill="#575656"/>
    <path d="M217.156 26.1357V17.0938H218.683V26.1357H217.156Z" fill="#575656"/>
    <path d="M224.955 25.0055C225.905 25.0055 226.77 24.7038 227.556 24.096L228.182 25.2007C227.369 25.9195 226.295 26.2788 224.955 26.2788C223.614 26.2788 222.527 25.8307 221.617 24.9345C220.707 24.0383 220.25 22.9291 220.25 21.607C220.25 20.2849 220.707 19.1624 221.617 18.2662C222.527 17.37 223.641 16.9219 224.955 16.9219C226.269 16.9219 227.338 17.2857 228.128 18.0133L227.516 19.118C226.739 18.5058 225.887 18.1952 224.955 18.1952C224.085 18.1952 223.339 18.5146 222.722 19.1535C222.096 19.819 221.781 20.6354 221.781 21.607C221.781 22.5786 222.096 23.3906 222.722 24.0472C223.339 24.6861 224.085 25.0055 224.955 25.0055Z" fill="#575656"/>
    <path d="M233.212 18.3515V26.1245H231.685V18.3515H228.902V17.0781H235.999V18.3515H233.217H233.212Z" fill="#575656"/>
</svg>
