<svg width="260" height="48" viewBox="0 0 260 48" fill="none" xmlns="http://www.w3.org/2000/svg">
<path d="M59.0742 8.8936L63.377 8.88211C65.9721 8.87499 67.6841 10.2503 67.6901 12.5169V12.5503C67.6972 15.0299 65.6304 16.3165 63.1837 16.3231L60.3915 16.3313L60.403 20.3882L59.1054 20.3915L59.0742 8.8947V8.8936ZM63.2302 15.1405C65.135 15.1356 66.381 14.1134 66.3767 12.6023V12.5695C66.3723 10.927 65.1377 10.0762 63.2822 10.0811L60.3751 10.0893L60.3882 15.1482L63.2297 15.1399L63.2302 15.1405Z" fill="black"/>
<path d="M69.8398 11.8703L71.1045 11.8665L71.1106 14.0838C71.7309 12.6702 72.96 11.6486 74.5696 11.7099L74.5735 13.0732H74.4749C72.6189 13.0786 71.1111 14.4123 71.1182 16.9746L71.1275 20.3581L69.8628 20.3619L69.8398 11.8703Z" fill="black"/>
<path d="M77.502 8.59709L78.9473 8.59326L78.9517 9.98937L77.5063 9.9932L77.502 8.59709ZM77.5928 11.8492L78.8575 11.8454L78.8805 20.337L77.6158 20.3408L77.5928 11.8492Z" fill="black"/>
<path d="M82.7838 11.8347L84.0485 11.8314L84.0523 13.2603C84.6085 12.421 85.3619 11.6469 86.7903 11.643C88.1705 11.6392 89.0596 12.3767 89.5217 13.3277C90.1262 12.3898 91.0279 11.6315 92.5061 11.6277C94.4601 11.6222 95.6635 12.9335 95.6684 15.0358L95.6827 20.2918L94.4174 20.2956L94.4043 15.3353C94.3999 13.6928 93.5759 12.7752 92.1968 12.7791C90.9156 12.7824 89.8508 13.7377 89.8557 15.4136L89.8683 20.3076L88.62 20.3109L88.6069 15.3183C88.6025 13.7251 87.7626 12.7911 86.4158 12.795C85.069 12.7988 84.0539 13.9184 84.0578 15.4782L84.0709 20.3235L82.8062 20.3268L82.7832 11.8352L82.7838 11.8347Z" fill="black"/>
<path d="M98.8262 16.0619V16.0291C98.8196 13.5818 100.539 11.6064 102.887 11.5999C105.4 11.5928 106.851 13.5933 106.858 16.0734C106.858 16.2377 106.858 16.3357 106.843 16.484L100.109 16.5021C100.295 18.3406 101.595 19.3721 103.106 19.3677C104.272 19.3644 105.092 18.8864 105.78 18.1616L106.57 18.8656C105.719 19.821 104.685 20.4643 103.076 20.4687C100.744 20.4753 98.8339 18.6899 98.8262 16.0619ZM105.575 15.5517C105.44 14.0083 104.549 12.6642 102.857 12.668C101.379 12.6724 100.266 13.907 100.106 15.5665L105.575 15.5517Z" fill="black"/>
<path d="M116.167 8.73958L117.481 8.73575L121.686 14.998L125.857 8.71331L127.171 8.70947L127.202 20.2063L125.904 20.2101L125.879 10.8972L121.708 17.068H121.642L117.437 10.9367L117.462 20.2325L116.197 20.2364L116.167 8.73958Z" fill="black"/>
<path d="M130.898 8.4533L132.344 8.44946L132.348 9.84557L130.903 9.8494L130.898 8.4533ZM130.989 11.7048L132.254 11.7016L132.277 20.1932L131.012 20.1964L130.989 11.7048Z" fill="black"/>
<path d="M135.852 11.6917L137.117 11.6884L137.121 13.1666C137.677 12.2452 138.562 11.5039 140.023 11.4995C142.076 11.4941 143.279 12.871 143.284 14.8907L143.299 20.163L142.034 20.1663L142.021 15.206C142.016 13.6293 141.159 12.6465 139.665 12.6504C138.203 12.6547 137.122 13.7251 137.126 15.3177L137.139 20.1795L135.875 20.1827L135.852 11.6912L135.852 11.6917Z" fill="black"/>
<path d="M146.648 8.41106L148.094 8.40723L148.098 9.80333L146.652 9.80716L146.648 8.41106ZM146.739 11.6621L148.004 11.6588L148.027 20.1504L146.762 20.1537L146.739 11.6621Z" fill="black"/>
<path d="M151.245 19.0584L151.883 18.1534C152.804 18.8405 153.824 19.2319 154.826 19.2292C155.844 19.2264 156.582 18.6987 156.579 17.878V17.8446C156.577 16.9905 155.574 16.6647 154.457 16.3559C153.125 15.9809 151.645 15.5254 151.642 13.9656V13.9322C151.637 12.4704 152.85 11.4986 154.526 11.4937C155.561 11.4909 156.711 11.849 157.583 12.4217L157.011 13.3759C156.221 12.8684 155.317 12.5591 154.496 12.5613C153.494 12.564 152.854 13.0918 152.857 13.7981V13.8309C152.859 14.6357 153.911 14.9445 155.045 15.2867C156.359 15.6771 157.774 16.1829 157.778 17.7099V17.7433C157.782 19.3524 156.454 20.2924 154.762 20.2968C153.547 20.3001 152.199 19.8276 151.244 19.0584H151.245Z" fill="black"/>
<path d="M161.39 17.8646L161.377 12.7401L160.195 12.7434L160.191 11.6265L161.373 11.6232L161.366 9.06096L162.632 9.05713L162.639 11.6194L165.332 11.6123L165.335 12.7292L162.642 12.7363L162.655 17.6966C162.658 18.7319 163.234 19.1074 164.087 19.1052C164.514 19.1042 164.875 19.0215 165.318 18.8063L165.321 19.8903C164.878 20.1214 164.403 20.2533 163.795 20.255C162.432 20.2588 161.395 19.5887 161.39 17.8646Z" fill="black"/>
<path d="M167.791 15.8754V15.8426C167.784 13.3953 169.504 11.4194 171.852 11.4133C174.365 11.4062 175.816 13.4068 175.823 15.8869C175.823 16.0512 175.823 16.1492 175.807 16.2975L169.073 16.3156C169.259 18.1541 170.559 19.185 172.07 19.1812C173.236 19.1779 174.057 18.6999 174.745 17.975L175.535 18.6791C174.683 19.6339 173.65 20.2778 172.041 20.2822C169.708 20.2887 167.798 18.5034 167.791 15.8754ZM174.539 15.3651C174.404 13.8218 173.513 12.4771 171.822 12.4815C170.344 12.4853 169.23 13.7205 169.071 15.3799L174.539 15.3651Z" fill="black"/>
<path d="M179.014 11.5751L180.278 11.5718L180.285 13.7891C180.905 12.3755 182.134 11.3539 183.744 11.4152L183.748 12.7785H183.649C181.793 12.7834 180.285 14.1176 180.292 16.6799L180.301 20.0634L179.037 20.0667L179.014 11.5751Z" fill="black"/>
<path d="M186.792 8.54906L188.335 8.54468V8.62625L187.017 13.0155L186.311 13.0177L186.792 8.54906Z" fill="black"/>
<path d="M190.317 18.9519L190.955 18.0469C191.877 18.7345 192.896 19.1254 193.898 19.1227C194.916 19.1199 195.654 18.5927 195.651 17.772V17.7386C195.649 16.8845 194.646 16.5588 193.529 16.2494C192.197 15.875 190.718 15.4189 190.714 13.8591V13.8257C190.709 12.3639 191.922 11.3921 193.598 11.3877C194.632 11.385 195.783 11.743 196.655 12.3152L196.083 13.2694C195.293 12.7619 194.389 12.4531 193.567 12.4553C192.565 12.4581 191.927 12.9853 191.928 13.6916V13.7244C191.93 14.5292 192.983 14.8386 194.117 15.1802C195.432 15.5711 196.845 16.0764 196.85 17.6034V17.6368C196.854 19.2459 195.526 20.1859 193.835 20.1908C192.619 20.1941 191.271 19.7216 190.316 18.9519H190.317Z" fill="black"/>
<path d="M58.5586 34.3729V34.3395C58.5586 31.1701 60.9402 28.3943 64.4381 28.3943C67.936 28.3943 70.2853 31.1372 70.2853 34.3072V34.34C70.2853 37.51 67.9037 40.2858 64.4058 40.2858C60.9079 40.2858 58.5586 37.5429 58.5586 34.3729ZM68.9385 34.3729V34.3395C68.9385 31.728 67.0338 29.5933 64.4058 29.5933C61.7778 29.5933 59.9054 31.6957 59.9054 34.3067V34.3395C59.9054 36.9516 61.8101 39.0863 64.4381 39.0863C67.0661 39.0863 68.9385 36.9839 68.9385 34.3729Z" fill="black"/>
<path d="M72.9636 32.7133H71.7969V31.6128H72.9636V30.8737C72.9636 29.9041 73.2258 29.1655 73.7027 28.6892C74.1292 28.2622 74.7539 28.0322 75.5258 28.0322C76.1171 28.0322 76.5113 28.0979 76.922 28.2463V29.3468C76.4621 29.2154 76.1171 29.1332 75.6901 29.1332C74.7046 29.1332 74.2119 29.724 74.2119 30.94V31.6298H76.9055V32.7133H74.2283V40.088H72.9636V32.7133ZM79.0073 32.7133H77.8412V31.6128H79.0073V30.8737C79.0073 29.9041 79.2537 29.1655 79.73 28.6892C80.1735 28.2622 80.7812 28.0322 81.5532 28.0322C82.1445 28.0322 82.5551 28.0979 82.9487 28.2463V29.3468C82.5053 29.2154 82.1609 29.1332 81.7339 29.1332C80.7319 29.1332 80.2556 29.724 80.2556 30.94V31.6298H82.9329V32.7133H80.2556V40.088H79.0073V32.7133ZM84.5918 28.3448H86.0207V29.7409H84.5918V28.3448ZM84.6739 31.5964H85.9391V40.088H84.6739V31.5964Z" fill="black"/>
<path d="M89.3398 35.8834V35.8505C89.3398 33.4525 91.2117 31.4153 93.6919 31.4153C95.3009 31.4153 96.3034 32.0887 97.0912 32.9269L96.2541 33.8133C95.5807 33.1076 94.8257 32.5322 93.6754 32.5322C91.9514 32.5322 90.6369 33.994 90.6369 35.8171V35.8505C90.6369 37.6895 91.9837 39.1513 93.757 39.1513C94.841 39.1513 95.6793 38.6093 96.3521 37.8866L97.1575 38.6422C96.3028 39.5943 95.2851 40.2846 93.6919 40.2846C91.2117 40.2846 89.3398 38.265 89.3398 35.8834Z" fill="black"/>
<path d="M99.4556 35.8669V35.834C99.4556 33.3867 101.18 31.4158 103.528 31.4158C106.041 31.4158 107.487 33.4196 107.487 35.8997C107.487 36.064 107.487 36.162 107.47 36.3103H100.736C100.917 38.1494 102.214 39.1841 103.726 39.1841C104.892 39.1841 105.713 38.7084 106.403 37.9857L107.191 38.6919C106.337 39.6446 105.302 40.2851 103.693 40.2851C101.36 40.2851 99.4556 38.4943 99.4556 35.8669ZM106.206 35.3747C106.075 33.8308 105.188 32.4839 103.496 32.4839C102.018 32.4839 100.902 33.7158 100.737 35.3747H106.206Z" fill="black"/>
<path d="M116.034 35.8834V35.8505C116.034 33.4525 117.813 31.4153 120.247 31.4153C122.666 31.4153 124.445 33.4191 124.445 35.8171V35.8505C124.445 38.2485 122.65 40.2852 120.215 40.2852C117.797 40.2852 116.033 38.2814 116.033 35.8834H116.034ZM123.212 35.8834V35.8505C123.212 34.0274 121.918 32.5322 120.216 32.5322C118.468 32.5322 117.267 34.0268 117.267 35.8171V35.8505C117.267 37.6731 118.546 39.1513 120.247 39.1513C121.994 39.1513 123.212 37.6731 123.212 35.8828L123.212 35.8834Z" fill="black"/>
<path d="M128.001 32.7133H126.893V31.6128H128.001V30.8737C128.001 29.9041 128.25 29.1655 128.703 28.6892C129.108 28.2622 129.701 28.0322 130.435 28.0322C130.997 28.0322 131.371 28.0979 131.761 28.2463V29.3468C131.324 29.2154 130.997 29.1332 130.59 29.1332C129.655 29.1332 129.187 29.724 129.187 30.94V31.6298H131.746V32.7133H129.202V40.088H128.001V32.7133Z" fill="black"/>
<path d="M138.971 38.2157L139.86 37.4109C140.532 38.4785 141.218 39.0533 142.357 39.0533C143.59 39.0533 144.495 38.1171 144.495 36.294V28.5913H145.743V36.2775C145.743 37.6244 145.369 38.6427 144.745 39.3003C144.136 39.9244 143.309 40.2523 142.342 40.2523C140.702 40.2523 139.657 39.3983 138.971 38.2157Z" fill="black"/>
<path d="M148.785 37.6243V37.5915C148.785 35.8006 150.189 34.8485 152.234 34.8485C153.264 34.8485 153.997 34.9963 154.714 35.2099V34.9142C154.714 33.3867 153.825 32.5983 152.312 32.5983C151.359 32.5983 150.61 32.8611 149.861 33.223L149.502 32.1877C150.392 31.7612 151.266 31.4814 152.436 31.4814C153.575 31.4814 154.449 31.7935 155.042 32.4177C155.588 32.9931 155.869 33.8138 155.869 34.8978V40.0875H154.714V38.8063C154.153 39.5783 153.217 40.2681 151.796 40.2681C150.298 40.2681 148.785 39.3653 148.785 37.6243ZM154.73 36.9673V36.1466C154.137 35.966 153.341 35.7853 152.358 35.7853C150.844 35.7853 150.002 36.4751 150.002 37.5427V37.5756C150.002 38.6432 150.938 39.2673 152.03 39.2673C153.513 39.2673 154.73 38.3141 154.73 36.9673Z" fill="black"/>
<path d="M159.363 31.5964H160.565V33.3046C161.22 32.2868 162.172 31.4158 163.655 31.4158C165.59 31.4158 167.509 33.0254 167.509 35.8176V35.851C167.509 38.6262 165.605 40.2687 163.655 40.2687C162.157 40.2687 161.189 39.4146 160.565 38.462V42.716H159.363V31.5964ZM166.276 35.8669V35.834C166.276 33.8302 164.965 32.5491 163.436 32.5491C161.938 32.5491 160.518 33.8795 160.518 35.8176V35.851C160.518 37.822 161.938 39.1354 163.436 39.1354C164.997 39.1354 166.276 37.92 166.276 35.8669Z" fill="black"/>
<path d="M170.053 37.6243V37.5915C170.053 35.8006 171.457 34.8485 173.501 34.8485C174.532 34.8485 175.265 34.9963 175.983 35.2099V34.9142C175.983 33.3867 175.093 32.5983 173.579 32.5983C172.628 32.5983 171.879 32.8611 171.129 33.223L170.77 32.1877C171.66 31.7612 172.534 31.4814 173.703 31.4814C174.843 31.4814 175.717 31.7935 176.31 32.4177C176.856 32.9931 177.137 33.8138 177.137 34.8978V40.0875H175.983V38.8063C175.421 39.5783 174.485 40.2681 173.064 40.2681C171.567 40.2681 170.053 39.3653 170.053 37.6243ZM175.999 36.9673V36.1466C175.406 35.966 174.61 35.7853 173.627 35.7853C172.113 35.7853 171.27 36.4751 171.27 37.5427V37.5756C171.27 38.6432 172.206 39.2673 173.299 39.2673C174.781 39.2673 175.999 38.3141 175.999 36.9673Z" fill="black"/>
<path d="M180.631 31.5964H181.833V33.0747C182.363 32.1549 183.206 31.4158 184.595 31.4158C186.545 31.4158 187.685 32.796 187.685 34.8157V40.088H186.484V35.1278C186.484 33.551 185.672 32.5655 184.252 32.5655C182.863 32.5655 181.833 33.6331 181.833 35.2258V40.0875H180.631V31.5959L180.631 31.5964Z" fill="black"/>
<path d="M259.726 8.78979H214.779V38.5712H259.726V8.78979Z" fill="white"/>
<path d="M259.453 9.06361V38.298H215.053V9.06361H259.453ZM260 8.51611H214.506V38.8455H260V8.51611Z" fill="#CBCBCB"/>
<path d="M237.254 32.7799C242.279 32.7799 246.353 28.706 246.353 23.6806C246.353 18.6552 242.279 14.5813 237.254 14.5813C232.228 14.5813 228.154 18.6552 228.154 23.6806C228.154 28.706 232.228 32.7799 237.254 32.7799Z" fill="#D22D23"/>
<path d="M44.4344 25.3619C44.3709 24.4613 45.0958 23.1325 43.9297 21.6121C42.7706 20.1005 38.7301 19.4572 36.3573 19.4556C32.1717 19.4534 28.1148 19.8865 24.123 22.0337C24.2391 22.2138 24.3234 22.4164 24.3656 22.6349C25.4688 22.6228 26.5807 22.7537 27.6352 22.988C32.3907 20.7148 38.7285 21.138 42.1525 22.2237C42.2615 22.273 42.2051 22.3962 42.0852 22.3715C36.8369 21.2716 32.3217 21.3379 28.5096 23.2267C29.2799 23.4534 30.152 23.7583 30.8758 24.0945C34.7318 22.5681 39.7813 23.7665 42.1416 24.9967C42.2461 25.0553 42.1755 25.184 42.0622 25.138C37.8804 23.4512 34.1515 23.2891 31.351 24.3343C31.9779 24.6234 32.8972 25.1489 33.4381 25.4851C36.6957 25.4101 39.3543 26.2226 41.4692 27.5842C41.5683 27.6521 41.484 27.778 41.3773 27.7178C38.9207 26.325 37.097 25.7687 33.8848 25.8908C34.7219 26.5144 35.5919 27.2617 36.2894 27.9954C38.2385 28.331 40.2845 29.3767 41.1769 30.4175C41.2634 30.5007 41.1561 30.6157 41.0646 30.5335C40.0989 29.6679 37.9801 28.4547 36.6918 28.435C37.9193 29.8322 38.9371 31.4407 39.5213 32.9808C39.5585 33.0958 39.4227 33.1396 39.3674 33.0295C38.585 31.4659 37.5547 29.8716 36.4268 28.6091C36.1443 29.8508 36.5101 32.2094 36.5818 32.8856C36.5949 33.0082 36.4586 33.0487 36.4274 32.9321C36.1274 31.8196 35.9275 29.6701 36.0436 28.3321C35.3165 27.5787 34.4241 26.8221 33.616 26.2248C33.1901 28.0501 33.472 30.5352 33.4841 31.0082C33.4874 31.1319 33.356 31.1724 33.3297 31.0547C32.9169 29.2179 32.9311 27.5212 33.1671 25.9663C32.4761 25.4933 31.6779 25.1035 30.9338 24.7465C30.7619 25.3373 30.7165 25.9713 30.8419 27.0274C30.8567 27.15 30.7214 27.1955 30.6782 27.0361C30.3765 25.8032 30.4477 25.4659 30.5375 24.5779C28.6787 23.7583 26.538 23.1665 24.3935 23.1046C24.3568 23.4211 24.3086 23.5404 24.22 23.7331C27.0204 24.8916 29.1123 26.8752 30.6568 28.9896C31.7923 30.5439 33.3105 32.7021 32.9809 36.4672C35.2251 37.266 36.694 35.7894 37.0395 35.6969C37.3149 35.623 39.933 36.6145 41.5442 35.3443C43.1916 34.0457 42.763 32.3758 43.0186 31.9099C43.317 31.3646 44.7788 31.2962 45.2311 29.0756C45.6707 26.9162 44.4936 26.2226 44.4334 25.363L44.4344 25.3619Z" fill="#A59664"/>
<path d="M32.6096 17.6036C32.6211 18.0893 32.7202 18.3176 32.9343 18.5809C33.1763 18.8782 33.6981 19.0917 34.1607 19.0747C34.7947 19.0517 35.1434 18.7764 35.8119 18.7972C36.1108 18.8185 36.3649 18.9789 36.5532 19.1634C37.2381 19.1755 38.1141 19.2269 38.9545 19.331C39.3246 19.1059 39.5825 18.9028 39.8623 18.8256C40.5132 18.6641 41.4073 19.2291 42.1678 19.0129C43.104 18.7468 43.3301 17.9151 43.2841 17.2587C43.2485 16.7517 43.5896 16.1593 43.3323 15.8927C43.0306 15.5801 42.5395 15.8894 42.0648 15.8955C41.4615 15.9026 40.8686 15.4826 40.2105 15.9502C39.5863 16.3937 39.7407 17.5303 39.4161 18.0788C39.1089 18.5984 38.4103 18.8256 38.2275 18.8147L38.1979 16.6773C38.3375 16.3844 38.6403 16.023 38.948 15.6907C39.271 15.3414 39.6685 14.9204 39.9696 14.8448C40.2406 14.7764 40.6846 14.8678 41.1691 14.8601C41.5376 14.8541 41.9701 14.7589 42.1645 14.6083C42.3698 14.449 42.5696 14.1993 42.649 13.8933C42.7081 13.6655 42.7246 13.3534 42.7163 13.1706C42.6923 12.6127 42.9917 12.2311 42.7519 11.9513C42.5028 11.6611 41.9898 11.855 41.5611 11.861C41.1303 11.8676 40.3556 11.6469 39.8404 12.0778C39.0876 12.7069 39.4139 13.7252 39.1735 14.2908C38.9332 14.8563 38.314 15.4859 38.1514 15.7575C38.1623 14.4884 38.2702 12.3055 38.5499 11.8391C38.8297 11.3726 39.5934 11.1339 39.5934 10.2081C39.5934 9.39618 39.0005 9.18046 38.5072 8.9319C38.3134 8.83445 38.3244 8.20483 37.8836 8.20483C37.3767 8.20483 37.4533 8.8339 37.26 8.9319C36.7667 9.18046 36.107 9.42191 36.1015 10.2097C36.095 11.1607 36.8916 11.3732 37.1713 11.8396C37.4511 12.3061 37.5699 14.4895 37.5809 15.7586C37.2058 15.3113 36.8122 15.0113 36.5718 14.4462C36.3315 13.8807 36.6824 12.7036 35.9263 12.0778C35.3142 11.5714 34.6167 11.9223 34.1859 11.9327C33.7495 11.9431 33.127 11.608 32.8741 11.9672C32.6118 12.3395 32.9529 12.564 32.9836 13.1262C33.0022 13.4668 33.0548 14.057 33.225 14.3187C33.427 14.6297 33.7304 14.8016 33.9926 14.8612C34.5149 14.98 35.5338 14.7047 35.8897 14.8612C36.1552 14.9784 36.4963 15.3408 36.8193 15.6896C37.127 16.0225 37.3986 16.3822 37.5387 16.6751L37.5081 18.8026C37.3252 18.8136 36.781 18.6838 36.4262 18.196C36.0714 17.7077 36.3726 17.066 35.8201 16.3444C35.133 15.4465 34.3342 15.8391 33.7928 15.8495C33.3296 15.8582 32.7065 15.5155 32.3512 15.977C32.2105 16.1593 32.1875 16.5404 32.2801 16.7331C32.4114 17.0063 32.6047 17.3343 32.6113 17.6025L32.6096 17.6036Z" fill="#A59664"/>
<path d="M14.6734 28.9891C16.2179 26.8747 18.3093 24.8911 21.1103 23.7326C21.0216 23.5399 20.9734 23.4206 20.9367 23.1041C18.7922 23.166 16.6515 23.7584 14.7928 24.5774C14.8826 25.4655 14.9537 25.8022 14.6521 27.0357C14.6088 27.195 14.4736 27.1495 14.4884 27.0269C14.6137 25.9708 14.5683 25.3368 14.3964 24.746C13.6529 25.103 12.8541 25.4928 12.1632 25.9659C12.3991 27.5207 12.4134 29.218 12.0006 31.0542C11.9743 31.172 11.8429 31.1314 11.8462 31.0077C11.8582 30.5352 12.1402 28.0502 11.7142 26.2243C10.9061 26.8216 10.0137 27.5782 9.28665 28.3316C9.40272 29.6696 9.20343 31.8191 8.90286 32.9316C8.87165 33.0482 8.73533 33.0077 8.74847 32.8851C8.82019 32.2089 9.18646 29.8498 8.90341 28.6086C7.77557 29.8711 6.74519 31.4654 5.96283 33.0291C5.90753 33.1391 5.7723 33.0953 5.80898 32.9803C6.39316 31.4402 7.41149 29.8317 8.63842 28.4345C7.35017 28.4542 5.23138 29.6675 4.2656 30.533C4.17417 30.6152 4.06686 30.5002 4.15337 30.417C5.04633 29.3762 7.0923 28.3305 9.04083 27.9949C9.73833 27.2612 10.6083 26.5139 11.4454 25.8903C8.23328 25.7682 6.41013 26.3245 3.95298 27.7173C3.84622 27.7781 3.76246 27.6516 3.86101 27.5837C5.97597 26.2221 8.63459 25.4096 11.8922 25.4846C12.4331 25.1485 13.3523 24.6223 13.9792 24.3338C11.1788 23.2886 7.44982 23.4501 3.26807 25.1375C3.15419 25.1835 3.08412 25.0548 3.18869 24.9963C5.54892 23.7666 10.5984 22.5676 14.4544 24.094C15.1782 23.7578 16.0504 23.4529 16.8207 23.2262C13.009 21.3379 8.49334 21.2717 3.24508 22.371C3.12518 22.3962 3.06879 22.273 3.17774 22.2232C6.60175 21.1375 12.9395 20.7143 17.695 22.9875C18.749 22.7532 19.8615 22.6223 20.9647 22.6344C21.0063 22.4159 21.0911 22.2134 21.2072 22.0332C17.2154 19.886 13.1591 19.4529 8.97294 19.4551C6.60011 19.4562 2.55962 20.1 1.40058 21.6117C0.234967 23.132 0.959299 24.4614 0.89579 25.3614C0.835566 26.221 -0.341542 26.9147 0.0980943 29.074C0.550323 31.2946 2.01213 31.363 2.31051 31.9083C2.56564 32.3748 2.1375 34.0441 3.7849 35.3428C5.39617 36.6135 8.01428 35.622 8.28967 35.6953C8.63514 35.7879 10.1046 37.265 12.3482 36.4657C12.0186 32.7006 13.5368 30.5429 14.6723 28.988L14.6734 28.9891Z" fill="#A59664"/>
<path d="M2.04765 17.2601C2.00111 17.9165 2.22777 18.7476 3.16398 19.0142C3.92445 19.2305 4.8185 18.6655 5.46947 18.827C5.74924 18.9042 6.00711 19.1073 6.37721 19.3323C7.21761 19.2283 8.0936 19.1768 8.77851 19.1648C8.96685 18.9808 9.22143 18.8199 9.51982 18.7985C10.1883 18.7772 10.5371 19.0531 11.1711 19.0761C11.6337 19.0925 12.1554 18.8795 12.3974 18.5822C12.6115 18.3195 12.7101 18.0906 12.7221 17.605C12.7287 17.3367 12.9219 17.0088 13.0533 16.7356C13.1459 16.5428 13.1229 16.1618 12.9822 15.9795C12.6263 15.5179 12.0032 15.8607 11.5406 15.8519C10.9991 15.8421 10.2003 15.449 9.51325 16.3468C8.96083 17.069 9.26249 17.7106 8.90717 18.1985C8.5524 18.6868 8.00819 18.816 7.82533 18.8051L7.79467 16.6775C7.93428 16.3846 8.20583 16.0249 8.51407 15.692C8.83709 15.3427 9.17818 14.9803 9.44371 14.8637C9.79958 14.7071 10.8185 14.9825 11.3408 14.8637C11.603 14.804 11.9063 14.6321 12.1084 14.3211C12.2781 14.0594 12.3312 13.4692 12.3498 13.1287C12.3805 12.5664 12.7215 12.3419 12.4593 11.9696C12.2064 11.611 11.5839 11.9461 11.1475 11.9351C10.7166 11.9247 10.0191 11.5738 9.40703 12.0802C8.65095 12.7055 9.00189 13.8831 8.76154 14.4487C8.52119 15.0142 8.12754 15.3137 7.75251 15.761C7.76346 14.4919 7.88227 12.3085 8.16204 11.8421C8.4418 11.3756 9.23841 11.1632 9.23184 10.2122C9.22636 9.4238 8.56663 9.18291 8.07334 8.93434C7.87953 8.83689 7.95618 8.20728 7.44975 8.20728C7.00902 8.20728 7.01942 8.83634 6.82616 8.93434C6.33287 9.18291 5.73993 9.39916 5.73993 10.2105C5.73993 11.1364 6.50368 11.3751 6.78345 11.8415C7.06322 12.308 7.17108 14.4908 7.18203 15.7599C7.01887 15.4884 6.40021 14.8588 6.15986 14.2932C5.91951 13.7276 6.24581 12.7093 5.49301 12.0802C4.97728 11.6494 4.20257 11.8694 3.77225 11.8634C3.34356 11.8569 2.83056 11.663 2.58145 11.9538C2.34165 12.2335 2.64168 12.6151 2.61704 13.173C2.60937 13.3559 2.62525 13.668 2.68438 13.8957C2.76377 14.2012 2.9636 14.4514 3.16891 14.6107C3.36327 14.7618 3.79634 14.8571 4.16425 14.8626C4.64823 14.8703 5.09225 14.7788 5.36381 14.8473C5.66493 14.9234 6.0624 15.3444 6.38543 15.6931C6.69312 16.026 6.99588 16.3874 7.13549 16.6797L7.10592 18.8171C6.92306 18.8281 6.22446 18.6009 5.91732 18.0813C5.5932 17.5322 5.74705 16.3961 5.12291 15.9526C4.46482 15.4851 3.87134 15.905 3.26855 15.8979C2.79388 15.8924 2.30278 15.5825 2.00111 15.8952C1.74379 16.1618 2.08488 16.7542 2.04929 17.2611L2.04765 17.2601Z" fill="#A59664"/>
<path d="M17.418 14.7503C18.5234 15.7593 19.1322 14.4858 20.7095 15.6312C21.2171 15.9996 21.7782 16.3517 22.0268 16.6085C22.0241 17.3306 22.0071 19.5244 22.0071 19.5244C21.7624 19.4532 20.7933 19.289 20.3641 18.6287C19.9617 18.0106 20.6137 17.0021 19.8845 16.5066C19.3567 16.1475 19.1278 16.5318 18.6198 16.5296C18.1325 16.5274 17.5401 16.0533 17.1432 16.4387C16.7462 16.8242 17.1525 17.2797 17.2029 17.7779C17.2456 18.2033 16.7911 18.5707 17.1393 19.1948C17.3611 19.5923 18.04 19.6832 18.4172 19.7111C18.8579 19.7439 19.3797 19.5233 20.0504 19.8469C20.6088 20.1162 21.0632 20.1485 21.8352 21.451C22.0651 21.3295 22.369 21.2397 22.6646 21.2397C22.9603 21.2397 23.2636 21.33 23.4935 21.451C24.2655 20.1485 24.7205 20.1157 25.2784 19.8469C25.949 19.5233 26.4713 19.7439 26.9115 19.7111C27.2887 19.6832 27.9676 19.5923 28.1894 19.1948C28.5376 18.5707 28.0826 18.2033 28.1259 17.7779C28.1762 17.2797 28.5825 16.8242 28.1855 16.4387C27.7886 16.0533 27.1968 16.528 26.709 16.5296C26.2009 16.5318 25.972 16.1475 25.4442 16.5066C24.715 17.0027 25.3676 18.0106 24.9646 18.6287C24.5349 19.2884 23.5663 19.4532 23.3216 19.5244C23.3216 19.5244 23.3046 17.3306 23.3019 16.6085C23.5505 16.3522 24.1117 16.0002 24.6192 15.6312C26.197 14.4858 26.8059 15.7593 27.9107 14.7503C28.4045 14.2997 28.0306 13.7013 28.0388 13.3328C28.0509 12.7892 28.6925 12.2658 28.1828 11.779C27.7536 11.369 27.0763 11.8874 26.7922 11.8858C26.5797 11.8847 26.2518 11.5923 25.7383 11.64C25.3035 11.6805 24.9729 11.9466 24.7632 12.3315C24.4807 12.8505 24.779 13.733 24.5228 14.2219C24.3285 14.5926 23.4683 15.2611 23.2899 15.4073C23.2899 15.4073 23.2855 12.3254 23.291 11.6564C23.6277 11.346 24.6893 10.5943 25.6747 10.5225C26.0131 10.4979 26.8661 10.7317 27.4579 10.3501C28.0372 9.97614 27.718 9.68378 27.8368 9.04157C27.8828 8.79192 28.3794 8.23293 27.9912 7.67011C27.6205 7.13247 27.1393 7.34654 26.6783 7.42866C26.266 7.50203 25.5209 7.20748 25.1667 7.48286C24.5031 7.99915 24.7648 8.8839 24.4182 9.57593C24.2901 9.83215 23.464 10.3545 23.2641 10.4837C23.268 10.2395 23.2734 8.4344 23.338 7.93181C23.3906 7.52393 23.7919 7.04542 23.9956 6.85106C24.1992 6.6567 24.9625 6.14753 24.9564 5.47466C24.9499 4.74102 24.5141 4.53462 23.9879 4.12619C23.7224 3.92033 23.7032 3.66192 23.5362 3.43033C23.3588 3.1845 23.084 3.00493 22.6652 3C22.2463 3.00493 21.9715 3.1845 21.7941 3.43033C21.6271 3.66192 21.6074 3.91979 21.3424 4.12619C20.8163 4.53462 20.3805 4.74102 20.3739 5.47466C20.3679 6.14753 21.1311 6.6567 21.3348 6.85106C21.5384 7.04542 21.9398 7.52393 21.9923 7.93181C22.0569 8.43386 22.0624 10.2395 22.0662 10.4837C21.8664 10.3545 21.0402 9.83215 20.9121 9.57593C20.5655 8.8839 20.8267 7.9986 20.1637 7.48286C19.8095 7.20748 19.0643 7.50203 18.6521 7.42866C18.1905 7.34654 17.7098 7.13247 17.3392 7.67011C16.951 8.23293 17.4476 8.79192 17.4936 9.04157C17.6124 9.68378 17.2932 9.97614 17.8724 10.3501C18.4643 10.7322 19.3167 10.4979 19.6556 10.5225C20.6411 10.5943 21.7027 11.346 22.0394 11.6564C22.0449 12.3254 22.0405 15.4073 22.0405 15.4073C21.862 15.2611 21.0019 14.5926 20.8075 14.2219C20.5513 13.7336 20.8497 12.851 20.5672 12.3315C20.3575 11.9466 20.0268 11.6805 19.5921 11.64C19.0786 11.5923 18.7501 11.8847 18.5382 11.8858C18.254 11.8874 17.5773 11.3684 17.1476 11.779C16.6378 12.2658 17.28 12.7892 17.2915 13.3328C17.2998 13.7013 16.9258 14.2997 17.4197 14.7503H17.418Z" fill="#A59664"/>
<path d="M22.6677 24.2443C23.3719 24.2443 23.9428 23.6734 23.9428 22.9692C23.9428 22.265 23.3719 21.6941 22.6677 21.6941C21.9635 21.6941 21.3926 22.265 21.3926 22.9692C21.3926 23.6734 21.9635 24.2443 22.6677 24.2443Z" fill="#A59664"/>
<path d="M24.0228 24.0457C23.7748 24.3862 23.2941 24.638 22.9426 24.6775C22.9426 24.8707 22.9426 25.0202 22.9426 25.2118C27.3099 27.0771 29.3411 29.3848 30.6956 35.307C30.6994 35.4275 30.5664 35.4302 30.5346 35.3108C29.1692 30.2126 26.608 27.3755 22.9283 25.9038C22.9283 26.58 22.9283 27.2446 22.9283 27.8962C26.9376 29.7642 28.1629 32.5066 28.908 36.9057C28.9108 37.0261 28.7701 37.0294 28.7471 36.9079C27.9171 32.5323 25.8021 29.791 22.9278 28.6303C22.9272 29.387 22.9262 30.1245 22.9245 30.8378C25.6987 32.2646 26.7608 34.2148 27.0345 38.8756C27.0477 39.0152 26.902 39.0239 26.8889 38.8871C26.458 34.3029 25.2059 32.7754 22.9229 31.4215C22.9207 32.344 22.9168 33.2238 22.9119 34.0522C24.6409 35.0574 25.0734 37.8014 25.023 40.5252C25.0105 40.6648 24.8977 40.6527 24.8867 40.5153C24.6239 37.3103 24.273 35.5173 22.9103 34.5734C22.8435 38.0461 22.7455 40.6062 22.6896 41.3962C22.6798 41.5555 22.6612 41.6322 22.6332 41.6322C22.5998 41.6322 22.5889 41.5544 22.5769 41.3962C22.521 40.6067 22.423 38.0461 22.3562 34.5734C20.9935 35.5173 20.642 37.3097 20.3798 40.5153C20.3683 40.6527 20.256 40.6648 20.2434 40.5252C20.1931 37.8014 20.6256 35.0574 22.3546 34.0522C22.3496 33.2238 22.3458 32.344 22.3436 31.4215C20.0606 32.7754 18.8085 34.3029 18.3776 38.8871C18.3644 39.0239 18.2194 39.0152 18.232 38.8756C18.5057 34.2148 19.5678 32.2646 22.342 30.8378C22.3403 30.1245 22.3392 29.3875 22.3387 28.6303C19.4644 29.7916 17.3494 32.5323 16.5194 36.9079C16.4964 37.0289 16.3552 37.0261 16.3584 36.9057C17.1036 32.5066 18.3289 29.7642 22.3381 27.8962C22.3381 27.2446 22.3381 26.5794 22.3381 25.9038C18.6579 27.3755 16.0973 30.2126 14.7318 35.3108C14.7001 35.4302 14.5665 35.4275 14.5709 35.307C15.9254 29.3848 17.9566 27.0771 22.3239 25.2118C22.3239 25.0202 22.3239 24.8707 22.3239 24.6775C21.9724 24.638 21.4917 24.3862 21.2437 24.0457C16.728 26.021 11.8192 31.5884 12.7215 36.7803C13.045 38.148 13.1436 38.2958 14.7116 39.371C14.9607 40.1655 15.2383 40.725 15.869 41.3858C16.3404 41.8797 17.3335 42.5952 19.0904 42.9456C19.38 43.3924 20.6716 44.6456 22.6349 44.6615C24.5982 44.6461 25.8892 43.3924 26.1793 42.9456C27.9362 42.5952 28.9294 41.8797 29.4008 41.3858C30.0315 40.725 30.3091 40.1655 30.5582 39.371C32.1262 38.2958 32.2248 38.148 32.5483 36.7803C33.4506 31.5879 28.5418 26.021 24.0261 24.0457H24.0228Z" fill="#A59664"/>
</svg>
