<?xml version="1.0" encoding="UTF-8"?>
<svg id="Layer_1" data-name="Layer 1" xmlns="http://www.w3.org/2000/svg" xmlns:xlink="http://www.w3.org/1999/xlink" viewBox="0 0 539.07 185.11">
  <defs>
    <style>
      .cls-1 {
        fill: url(#linear-gradient-2);
      }

      .cls-2 {
        fill: #fff;
      }

      .cls-3 {
        fill: url(#linear-gradient-5);
      }

      .cls-4 {
        fill: #004483;
      }

      .cls-5 {
        fill: url(#linear-gradient-3);
      }

      .cls-6 {
        fill: url(#linear-gradient);
      }

      .cls-7 {
        fill: url(#linear-gradient-4);
      }

      .cls-8 {
        fill: #9d9d9e;
      }
    </style>
    <linearGradient id="linear-gradient" x1="100.4" y1="93.13" x2="63.83" y2="72.44" gradientUnits="userSpaceOnUse">
      <stop offset="0" stop-color="#fff"/>
      <stop offset=".2" stop-color="#e8ec8f"/>
      <stop offset=".76" stop-color="#abcd03"/>
      <stop offset="1" stop-color="#8fc31f"/>
    </linearGradient>
    <linearGradient id="linear-gradient-2" x1="97.35" y1="79.52" x2="63.26" y2="56.72" gradientUnits="userSpaceOnUse">
      <stop offset="0" stop-color="#e6eb91"/>
      <stop offset=".02" stop-color="#e1e889"/>
      <stop offset=".09" stop-color="#d3e16e"/>
      <stop offset=".15" stop-color="#cadc5d"/>
      <stop offset=".2" stop-color="#c7db58"/>
      <stop offset=".4" stop-color="#a3c910"/>
      <stop offset=".75" stop-color="#7dba23"/>
      <stop offset="1" stop-color="#66b22f"/>
    </linearGradient>
    <linearGradient id="linear-gradient-3" x1="102" y1="72.57" x2="67.91" y2="49.77" xlink:href="#linear-gradient-2"/>
    <linearGradient id="linear-gradient-4" x1="85.17" y1="97.74" x2="51.07" y2="74.94" xlink:href="#linear-gradient-2"/>
    <linearGradient id="linear-gradient-5" x1="80.96" y1="104.02" x2="46.87" y2="81.22" xlink:href="#linear-gradient-2"/>
  </defs>
  <rect class="cls-2" width="539.07" height="185.11"/>
  <g>
    <path class="cls-8" d="m401.23,106.79l-2.22,3.7c-1.85-3.8-5.69-3.83-5.69-3.83-3-.08-5.14,1.73-5.06,4.29.11,3.4,3.14,4.57,6.63,5.92,3.77,1.47,7.73,3.76,8.13,8.49.48,5.74-4.51,9.73-11.48,9.6-6.8-.13-10.17-4.75-10.17-4.75l1.88-4.36s2.15,6.02,9.46,6.24c3.25.09,5.71-2.34,5.61-5.52-.11-3.4-3.03-4.54-6.43-5.85-3.81-1.47-8.14-3.15-8.3-8.55-.16-5.27,3.95-8.58,10.46-8.41,0,0,4.17,0,7.18,3.03Z"/>
    <path class="cls-8" d="m416.07,118.28l13.65-13.71h-4.8l-12.83,12.89c0-.9,0-12.89,0-12.89h-4.72v29.56h4.73v-14.32s12,14.34,12,14.34h5.99s-14.03-15.87-14.03-15.87Z"/>
    <path class="cls-8" d="m442.72,118.28l13.64-13.71h-4.81l-12.82,12.89c0-.9.02-12.89.02-12.89h-4.73v29.57h4.74v-14.33s12,14.33,12,14.33h5.99s-14.04-15.86-14.04-15.86Z"/>
    <path class="cls-8" d="m482.86,121.13c0,7.3-3.03,10.56-8.65,10.56-6.34,0-8.52-2.87-8.52-10.6v-16.5h-4.69v16.91c.05,3.64.45,7.54,3.15,9.98,2.33,2.12,5.55,3.14,9.71,3.14,7.94,0,12.36-4.37,12.36-12.47v-17.58h-3.37v16.55Z"/>
    <path class="cls-8" d="m379.05,136h-3.51c-1.27-1.91-2.64-4.28-4.1-7.13-1.46-2.85-2.19-6.25-2.19-10.22s.73-7.34,2.19-10.2c1.46-2.86,2.83-5.23,4.1-7.11h3.51c-1.88,3.23-3.23,6.26-4.04,9.09-.81,2.83-1.22,5.57-1.22,8.22s.41,5.38,1.22,8.22c.81,2.83,2.16,5.88,4.04,9.13Z"/>
    <path class="cls-8" d="m493.96,126.87c.81-2.83,1.22-5.57,1.22-8.22s-.41-5.38-1.22-8.22c-.81-2.83-2.17-5.87-4.08-9.09h3.55c1.27,1.88,2.63,4.25,4.08,7.11,1.45,2.86,2.17,6.26,2.17,10.2s-.72,7.37-2.17,10.22c-1.45,2.85-2.81,5.22-4.08,7.13h-3.55c1.91-3.25,3.27-6.3,4.08-9.13Z"/>
  </g>
  <g>
    <g>
      <path class="cls-8" d="m307.39,106.78l-2.18,3.66c-1.83-3.77-5.64-3.79-5.64-3.79-2.97-.08-5.07,1.7-4.99,4.24.1,3.35,3.09,4.51,6.55,5.85,3.72,1.45,7.64,3.71,8.03,8.4.47,5.67-4.45,9.62-11.35,9.49-6.73-.13-10.04-4.68-10.04-4.68l1.86-4.31s2.12,5.95,9.35,6.17c3.21.09,5.64-2.32,5.55-5.45-.11-3.35-3-4.48-6.36-5.79-3.77-1.45-8.03-3.1-8.2-8.45-.15-5.22,3.9-8.48,10.35-8.31,0,0,4.12-.01,7.09,2.99Z"/>
      <path class="cls-8" d="m159.92,66.45l-2.18,3.66c-1.85-3.76-5.65-3.8-5.65-3.8-2.96-.08-5.07,1.71-4.99,4.25.11,3.35,3.09,4.51,6.55,5.85,3.72,1.45,7.65,3.72,8.03,8.4.48,5.67-4.45,9.62-11.35,9.49-6.72-.12-10.05-4.68-10.05-4.68l1.87-4.31s2.12,5.95,9.36,6.17c3.2.09,5.63-2.32,5.54-5.45-.11-3.36-3-4.48-6.37-5.78-3.77-1.46-8.04-3.11-8.2-8.45-.17-5.22,3.9-8.48,10.34-8.31,0,0,4.12,0,7.1,2.99Z"/>
      <path class="cls-8" d="m255.88,66.75l-.35-.24c-.66-.41-4.45-2.8-11-2.8-10.05,0-16.28,5.98-16.28,15.21s5.88,15.09,15.71,15.09c3.83,0,7.65-.65,11.35-1.93l.35-.12v-11.48h-4.67v9.67c-2.04.99-4.31,1.23-5.88,1.23-7.6,0-11.77-4.5-11.77-12.67,0-7.65,4.05-12.38,11.02-12.38,3.52,0,7.29,1.5,9.4,3.92l.17.17,1.95-3.68Z"/>
      <path class="cls-8" d="m311.46,64.28h-4.58l-7.54,13.42-7.56-13.43h-5.81l10.53,17.01v12.21h4.67s0-12.32,0-12.58l10.31-16.64Z"/>
      <path class="cls-8" d="m366.99,104.6h-4.58l-7.53,13.43-7.57-13.44h-5.82l10.54,17.01v12.21h4.66s0-12.32,0-12.58l10.32-16.64Z"/>
      <path class="cls-8" d="m275.13,77.82l13.48-13.55h-4.74l-12.68,12.73c0-.88,0-12.73,0-12.73h-4.67v29.22h4.68v-14.16s11.86,14.17,11.86,14.17h5.93s-13.87-15.69-13.87-15.69Z"/>
      <path class="cls-8" d="m391.36,77.82l13.49-13.55h-4.77l-12.67,12.73c0-.88.03-12.73.03-12.73h-4.68v29.23h4.69v-14.17s11.86,14.17,11.86,14.17h5.93s-13.88-15.68-13.88-15.68Z"/>
      <polygon class="cls-8" points="413.04 93.5 416.55 93.5 424.32 71.05 431.57 93.49 435.6 93.5 445.33 64.25 441.3 64.25 433.46 87.37 425.99 64.25 423.32 64.25 415.55 87.33 408.61 64.27 403.67 64.25 413.04 93.5"/>
      <path class="cls-8" d="m456.71,63.86h-2.07l-12.56,29.62,4.02.02,4.6-11.1h9.02l4.46,11.11h5.5l-12.97-29.64Zm-1.52,6.64c.7,1.64,3,8.02,3.47,9.12h-7.19l3.71-9.12Z"/>
      <polygon class="cls-8" points="207.2 104.6 207.2 133.82 211.87 133.82 211.85 104.6 207.2 104.6"/>
      <rect class="cls-8" x="314.39" y="104.6" width="4.64" height="29.22"/>
      <path class="cls-8" d="m163.57,120.96c0,7.22-2.99,10.44-8.55,10.44-6.26,0-8.41-2.83-8.41-10.47v-16.31h-4.64v16.72c.06,3.6.44,7.46,3.12,9.86,2.3,2.1,5.48,3.11,9.59,3.11,7.86,0,12.22-4.33,12.22-12.33v-17.38h-3.33v16.36Z"/>
      <path class="cls-8" d="m334.79,80.63c0,7.21-3,10.44-8.55,10.44-6.27,0-8.42-2.84-8.42-10.48v-16.31h-4.64v16.72c.06,3.6.45,7.46,3.11,9.86,2.31,2.09,5.49,3.11,9.6,3.11,7.84,0,12.22-4.32,12.22-12.33v-17.38h-3.33v16.37Z"/>
      <path class="cls-8" d="m187.4,80.63c0,7.21-2.99,10.44-8.55,10.44-6.26,0-8.41-2.84-8.41-10.48v-16.31h-4.65l.02,16.72c.06,3.6.43,7.46,3.11,9.86,2.3,2.09,5.48,3.25,9.59,3.25,7.85,0,12.22-4.46,12.22-12.47v-17.38h-3.33v16.37Z"/>
      <polygon class="cls-8" points="226.98 133.82 229.64 133.82 241.9 104.59 237.67 104.59 228.45 127.83 219.25 104.6 214.03 104.6 226.98 133.82"/>
      <path class="cls-8" d="m249.01,130.44v-10.7h10.14v-2.98h-10.14v-9.65h11.05v-2.51h-15.68v29.22h15.94v-3.38h-11.31Z"/>
      <path class="cls-8" d="m322.14,104.59v2.44h9.06v26.79h4.64v-26.78s8.69-.01,8.69-.01v-2.45s-22.4.02-22.4.02Z"/>
      <path class="cls-8" d="m266.17,133.82l4.64.04v-14.23s12.56,14.22,12.56,14.22h4.95l-12.47-14.2c4.82-.19,9.05-3.53,9.05-7.77,0-4.83-3-7.29-9.5-7.29h-9.23v29.22Zm4.63-16.96v-9.75h4.43c3.68,0,5.23,2.14,5.13,4.79-.11,2.75-1.54,4.83-5.7,4.95l-3.87.02Z"/>
      <path class="cls-8" d="m223.14,64.28h-3.35v20.79c-7.24-7.74-20.17-20.79-20.17-20.79h-2.37v29.22h3.34v-21.89l20.57,21.89h2s-.01-29.22-.01-29.22Z"/>
      <path class="cls-8" d="m370.84,64.28h-3.35v20.79c-7.25-7.74-20.17-20.79-20.17-20.79h-2.37v29.22h3.34v-21.89l20.56,21.89h2s0-29.22,0-29.22Z"/>
      <path class="cls-8" d="m497.93,64.28h-3.34v20.79c-7.25-7.74-20.18-20.79-20.18-20.79h-2.36v29.22h3.34v-21.89l20.57,21.89h2s-.02-29.22-.02-29.22Z"/>
      <path class="cls-8" d="m199.66,104.6h-3.33v20.79c-7.26-7.75-20.18-20.79-20.18-20.79h-2.37v29.22h3.34v-21.89l20.56,21.89h2.01s-.03-29.22-.03-29.22Z"/>
    </g>
    <g>
      <path class="cls-6" d="m95.06,75.68c0-10.94,8.85-19.81,19.76-19.81,2.64,0,5.16.53,7.46,1.47-17.48-16.13-44.71-15.71-61.69,1.25-16.44,16.44-17.33,42.54-2.7,60.04,3.8-4.97,8.99-10.71,15.38-15.2,4.98-3.5,11.89-7,17.45-7.53,5.26-.5,13.09.02,17.83,2.29-3.71-3.8-7.62-8.07-9.53-10.62-2.48-3.31-3.95-7.43-3.95-11.89Z"/>
      <path class="cls-1" d="m93.65,90.16l-20.88-40.22c-3.86,1.86-7.51,4.3-10.8,7.34l31.55,32.83.14.05Z"/>
      <path class="cls-5" d="m93.76,90.2l2.76-44.44c-3.61-.35-7.25-.28-10.84.24l8.05,44.17.03.02Z"/>
      <path class="cls-7" d="m93.52,90.11l-43.02-15.99c-1.46,3.82-2.38,7.8-2.75,11.82l45.88,4.28-.11-.11Z"/>
      <path class="cls-3" d="m48.02,96.49c.45,3.1,1.23,6.17,2.33,9.14l43.15-15.29-45.48,6.15Z"/>
      <g>
        <path class="cls-8" d="m78.24,116.04s1.21-.54,1.56-.73v8.47h1.53v-9.96l-.25-.17-.08.04c-1.11.55-2.26,1.07-3.23,1.47l.46.89Z"/>
        <path class="cls-8" d="m86.38,118.8c1.23,0,1.85.64,1.85,1.96s-.84,2.21-2.13,2.21c-.94,0-1.58-.63-1.8-.9l-.19-.22-.37,1.32.11.06c.54.25,1.22.52,2.21.52,2.19,0,3.77-1.33,3.77-3.17,0-1.68-1.3-2.16-2.08-2.3.86-.36,1.63-1.16,1.63-2.34,0-1.4-1.1-2.26-2.87-2.26-1.5,0-2.27.97-2.27.97l.66,1.14.11-.32c.18-.51.72-1.03,1.44-1.03.63,0,1.37.42,1.37,1.6,0,.91-.26,2.01-1.45,2.01l-.79-.06v.94s.44-.12.79-.11Z"/>
        <path class="cls-8" d="m91.93,121.76l.4,1.61s.64.37,1.53.36c2.56-.01,4.34-2.4,4.34-5.84,0-3.83-2.33-4.24-3.33-4.24-1.94,0-3.3,1.31-3.3,3.19s1.11,2.98,2.91,2.98c.9,0,1.62-.36,2.15-1.03-.11,2.14-.96,4.09-2.7,4.11-1.4,0-2-1.15-2-1.15Zm2.78-2.77c-1.06,0-1.58-.7-1.58-2.14s.7-2.43,1.74-2.43,1.73.83,1.73,2.06-.64,2.51-1.88,2.51Z"/>
        <path class="cls-8" d="m104.3,118.01c.86-.39,1.43-1.18,1.43-2.11,0-1.04-.75-2.24-2.87-2.24-1.6,0-2.82,1.03-2.82,2.4,0,1.03.7,1.75,1.45,2.02-1.25.49-1.94,1.44-1.94,2.73,0,1.75,1.33,2.93,3.31,2.93s3.32-1.37,3.32-3.25c0-1.74-1.28-2.31-1.88-2.48Zm-2.79-1.93c0-.39.1-1.66,1.36-1.66s1.39,1.17,1.39,1.66c0,.39-.1,1.66-1.39,1.66s-1.36-1.28-1.36-1.66Zm1.35,6.88c-1.06,0-1.77-.9-1.77-2.23s.71-2.23,1.77-2.23,1.77.9,1.77,2.23-.7,2.23-1.77,2.23Z"/>
      </g>
      <path class="cls-4" d="m58.1,129.51c-1.29-1.13-3.5-3.22-5.49-5.79-9.09-10.21-19.48-36.97-2.2-61.24,7.13-10.01,17.37-16.75,27.54-19.48,23.72-6.37,41.93,4.84,50.27,13.86.93,1.01.8,2.29.09,2.88-1.04.88-1.97.42-4.06-.18-3.25-.94-6.04-1.17-9.05-.78-6.96.88-13,7.35-12.16,16.37.77,8.24,7.12,14.19,11.58,18.12,15.66,13.8,10.42,28.59,9.15,31.84-4.34,11.03-15.44,18.81-29.83,18.81-5.98,0-14.62-1.55-23.3-7.05-.34-.14-.66-.6-.26-1.34.66-1.68,3.43-6.56,4.63-7.98,4.32,4.98,11.6,9.68,19.7,9.98,11.05.4,18.17-5.58,20.79-13.18,2.93-8.54-.19-17.23-8.45-25.08-7.12-6.76-13.49-13.03-13.85-23.76-.47-13.75,11.49-21.91,22.62-21.36.33.02-15.38-11.32-35.54-4.57-9.87,3.31-15.78,9.13-18.61,12.44-.42.52-.16.91-.01,1.12.31.44,7.17,10.01,7.17,10.01l-12.36-2.84s-.52-.12-.77.3c-3.93,6.77-9.72,26.37,3.21,44.21,0,0,11.01-17.45,32.88-18.93,1.45-.1,1.27.42.31.76-19.54,7.19-27.25,21.51-32.23,32.56-.3.68-1.11.88-1.78.3Z"/>
    </g>
  </g>
</svg>